<svg width="16" height="18" viewBox="0 0 16 18" fill="none" xmlns="http://www.w3.org/2000/svg">
<path d="M3.83333 4.0013V1.5013C3.83333 1.28029 3.92113 1.06833 4.07741 0.912046C4.23369 0.755766 4.44565 0.667969 4.66667 0.667969H14.6667C14.8877 0.667969 15.0996 0.755766 15.2559 0.912046C15.4122 1.06833 15.5 1.28029 15.5 1.5013V13.168C15.5 13.389 15.4122 13.6009 15.2559 13.7572C15.0996 13.9135 14.8877 14.0013 14.6667 14.0013H12.1667V16.5013C12.1667 16.9613 11.7917 17.3346 11.3275 17.3346H1.33917C1.22927 17.3353 1.12033 17.3142 1.0186 17.2727C0.916873 17.2311 0.824361 17.1698 0.746382 17.0924C0.668403 17.0149 0.606494 16.9229 0.564212 16.8214C0.52193 16.72 0.500108 16.6112 0.5 16.5013L0.5025 4.83464C0.5025 4.37464 0.8775 4.0013 1.34167 4.0013H3.83333ZM2.16917 5.66797L2.16667 15.668H10.5V5.66797H2.16917ZM5.5 4.0013H12.1667V12.3346H13.8333V2.33464H5.5V4.0013Z" fill="#545454"/>
</svg>
