<svg width="230" height="42" viewBox="0 0 230 42" fill="none" xmlns="http://www.w3.org/2000/svg">
<rect y="9.31543" width="13.0435" height="36.8698" rx="6.52177" transform="rotate(-30.1097 0 9.31543)" fill="#1A1A1A"/>
<path d="M28.7847 19.6789C29.6502 21.1779 31.8139 21.1779 32.6794 19.6789L38.424 9.7289C39.2895 8.22984 38.2076 6.35602 36.4767 6.35602H24.9874C23.2565 6.35602 22.1746 8.22984 23.0401 9.72889L28.7847 19.6789Z" fill="#76EC00"/>
<path d="M61.3718 29.5H55.684L48.2952 11.6924H53.1059L58.4482 25.4601H58.714L63.9765 11.6924H68.7606L61.3718 29.5ZM76.6785 29.7658C72.2399 29.7658 69.21 27.5863 69.21 22.8554C69.21 18.6028 72.2134 15.9184 76.5988 15.9184C80.9577 15.9184 83.8547 18.2041 83.8547 22.377C83.8547 22.8554 83.8016 23.2009 83.7484 23.6527H72.9044C73.0107 25.6993 73.9675 26.5764 76.5457 26.5764C78.9111 26.5764 79.7351 25.9651 79.7351 24.8222V24.5564H83.7219V24.8488C83.7219 27.7458 80.9045 29.7658 76.6785 29.7658ZM76.5191 19.0281C74.1536 19.0281 73.1436 19.8254 72.9576 21.553H80.0274C79.9211 19.7988 78.858 19.0281 76.5191 19.0281ZM89.5322 29.5H85.5454V16.1842H89.2398V20.2773H89.479C89.8245 18.0447 91.4192 15.9184 94.901 15.9184C98.5423 15.9184 100.27 18.2573 100.27 21.2075V29.5H96.2831V22.5364C96.2831 20.4101 95.406 19.5065 92.9608 19.5065C90.4358 19.5065 89.5322 20.5165 89.5322 22.7756V29.5ZM108.24 29.7658C104.094 29.7658 101.808 27.0548 101.808 22.8554C101.808 18.6028 104.068 15.9184 108.028 15.9184C111.191 15.9184 112.812 17.4865 113.264 19.7191H113.503V11.6924H117.49V29.5H113.769V25.8056H113.556C113.051 28.4369 111.297 29.7658 108.24 29.7658ZM105.848 22.8554C105.848 25.274 107.044 26.1245 109.596 26.1245C112.121 26.1245 113.503 25.2474 113.503 22.9351V22.7225C113.503 20.4101 112.147 19.5596 109.596 19.5596C107.044 19.5596 105.848 20.4101 105.848 22.8554ZM126.669 29.7658C122.23 29.7658 119.2 27.5863 119.2 22.8554C119.2 18.6028 122.204 15.9184 126.589 15.9184C130.948 15.9184 133.845 18.2041 133.845 22.377C133.845 22.8554 133.792 23.2009 133.739 23.6527H122.895C123.001 25.6993 123.958 26.5764 126.536 26.5764C128.902 26.5764 129.726 25.9651 129.726 24.8222V24.5564H133.712V24.8488C133.712 27.7458 130.895 29.7658 126.669 29.7658ZM126.51 19.0281C124.144 19.0281 123.134 19.8254 122.948 21.553H130.018C129.912 19.7988 128.848 19.0281 126.51 19.0281ZM142.26 29.7658C137.768 29.7658 135.297 28.0116 135.297 24.9285V24.8488H139.283V25.088C139.283 26.284 140.028 26.6029 142.287 26.6029C144.413 26.6029 144.918 26.2574 144.918 25.4601C144.918 24.7159 144.519 24.5032 142.951 24.2906L139.204 23.8388C136.546 23.5464 135.057 22.3504 135.057 20.1178C135.057 17.7789 137.051 15.9184 141.622 15.9184C145.981 15.9184 148.453 17.5662 148.453 20.8088V20.8886H144.466V20.7291C144.466 19.6394 143.935 19.0812 141.489 19.0812C139.496 19.0812 138.991 19.4267 138.991 20.2773C138.991 20.9683 139.363 21.2607 141.117 21.4733L143.961 21.8188C147.523 22.2175 148.852 23.4135 148.852 25.6195C148.852 28.1179 146.38 29.7658 142.26 29.7658ZM156.228 29.7658C152.241 29.7658 149.982 27.0814 149.982 22.8554C149.982 18.6294 152.268 15.9184 156.361 15.9184C159.497 15.9184 161.198 17.2739 161.676 19.8254H161.942V16.1842H165.663V34.0183H161.676V25.9119H161.464C161.012 28.2508 159.311 29.7658 156.228 29.7658ZM154.022 22.8554C154.022 25.274 155.218 26.1245 157.769 26.1245C160.294 26.1245 161.676 25.3272 161.676 23.0414V22.8288C161.676 20.4633 160.321 19.5862 157.769 19.5862C155.218 19.5862 154.022 20.4101 154.022 22.8554ZM173.274 29.7658C169.527 29.7658 167.746 27.4535 167.746 24.4767V16.1842H171.733V23.1477C171.733 25.3006 172.637 26.2043 175.162 26.2043C177.766 26.2043 178.696 25.1943 178.696 22.9351V16.1842H182.683V29.5H178.962V25.4335H178.75C178.404 27.6661 176.783 29.7658 173.274 29.7658ZM188.815 29.7658C185.944 29.7658 184.217 28.4369 184.217 26.2043C184.217 24.2375 185.679 23.0148 188.522 22.7225L194.237 22.1378V21.6328C194.237 19.9052 193.466 19.4267 191.34 19.4267C189.32 19.4267 188.496 19.9583 188.496 21.4733V21.5796H184.482V21.4999C184.482 18.2041 187.247 15.9184 191.632 15.9184C196.071 15.9184 198.17 18.2041 198.17 21.6859V29.5H194.449V26.4435H194.237C193.625 28.5166 191.765 29.7658 188.815 29.7658ZM188.23 25.9385C188.23 26.6561 188.788 26.9485 189.958 26.9485C192.669 26.9485 194.13 26.3106 194.237 24.4235L189.612 24.9551C188.655 25.0348 188.23 25.3006 188.23 25.9385ZM204.178 29.5H200.191V16.1842H203.886V19.7191H204.125C204.497 17.5662 205.906 15.9184 208.59 15.9184C211.567 15.9184 212.789 17.9649 212.789 20.5696V22.7756H208.803V21.3936C208.803 19.9317 208.218 19.2938 206.597 19.2938C204.816 19.2938 204.178 20.1178 204.178 21.7922V29.5ZM221.303 29.7658C216.864 29.7658 213.834 27.5863 213.834 22.8554C213.834 18.6028 216.838 15.9184 221.223 15.9184C225.582 15.9184 228.479 18.2041 228.479 22.377C228.479 22.8554 228.426 23.2009 228.373 23.6527H217.529C217.635 25.6993 218.592 26.5764 221.17 26.5764C223.536 26.5764 224.36 25.9651 224.36 24.8222V24.5564H228.346V24.8488C228.346 27.7458 225.529 29.7658 221.303 29.7658ZM221.144 19.0281C218.778 19.0281 217.768 19.8254 217.582 21.553H224.652C224.546 19.7988 223.482 19.0281 221.144 19.0281Z" fill="#1A1A1A"/>
</svg>
