<svg width="20" height="18" viewBox="0 0 20 18" fill="none" xmlns="http://www.w3.org/2000/svg">
<path d="M4.28571 2.14286C4.28571 1.57454 4.51148 1.02949 4.91334 0.627628C5.31521 0.225765 5.86025 0 6.42857 0H13.5714C14.1397 0 14.6848 0.225765 15.0867 0.627628C15.4885 1.02949 15.7143 1.57454 15.7143 2.14286V2.85714H17.1429C17.9006 2.85714 18.6273 3.15816 19.1632 3.69398C19.699 4.2298 20 4.95652 20 5.71429V12.1429C20 12.7112 19.7742 13.2562 19.3724 13.6581C18.9705 14.0599 18.4255 14.2857 17.8571 14.2857H15.8571V15C15.8571 15.5683 15.6314 16.1134 15.2295 16.5152C14.8277 16.9171 14.2826 17.1429 13.7143 17.1429H6.42857C5.86025 17.1429 5.31521 16.9171 4.91334 16.5152C4.51148 16.1134 4.28571 15.5683 4.28571 15V14.2857H2.14286C1.57454 14.2857 1.02949 14.0599 0.627628 13.6581C0.225765 13.2562 0 12.7112 0 12.1429V5.71429C0 4.95652 0.30102 4.2298 0.836838 3.69398C1.37266 3.15816 2.09938 2.85714 2.85714 2.85714H4.28571V2.14286ZM14.2857 2.85714V2.14286C14.2857 1.95342 14.2105 1.77174 14.0765 1.63778C13.9426 1.50383 13.7609 1.42857 13.5714 1.42857H6.42857C6.23913 1.42857 6.05745 1.50383 5.9235 1.63778C5.78954 1.77174 5.71429 1.95342 5.71429 2.14286V2.85714H14.2857ZM4.28571 4.28571H2.85714C2.47826 4.28571 2.1149 4.43622 1.84699 4.70413C1.57908 4.97204 1.42857 5.3354 1.42857 5.71429V12.1429C1.42857 12.3323 1.50383 12.514 1.63778 12.6479C1.77174 12.7819 1.95342 12.8571 2.14286 12.8571H4.28571V12.1429C4.28571 11.5745 4.51148 11.0295 4.91334 10.6276C5.31521 10.2258 5.86025 10 6.42857 10H13.7143C14.2826 10 14.8277 10.2258 15.2295 10.6276C15.6314 11.0295 15.8571 11.5745 15.8571 12.1429V12.8571H17.8571C18.0466 12.8571 18.2283 12.7819 18.3622 12.6479C18.4962 12.514 18.5714 12.3323 18.5714 12.1429V5.71429C18.5714 5.3354 18.4209 4.97204 18.153 4.70413C17.8851 4.43622 17.5217 4.28571 17.1429 4.28571H4.28571ZM6.42857 11.4286C6.23913 11.4286 6.05745 11.5038 5.9235 11.6378C5.78954 11.7717 5.71429 11.9534 5.71429 12.1429V15C5.71429 15.1894 5.78954 15.3711 5.9235 15.5051C6.05745 15.639 6.23913 15.7143 6.42857 15.7143H13.7143C13.9037 15.7143 14.0854 15.639 14.2194 15.5051C14.3533 15.3711 14.4286 15.1894 14.4286 15V12.1429C14.4286 11.9534 14.3533 11.7717 14.2194 11.6378C14.0854 11.5038 13.9037 11.4286 13.7143 11.4286H6.42857Z" fill="#33383F"/>
</svg>
