<svg width="36" height="36" viewBox="0 0 36 36" fill="none" xmlns="http://www.w3.org/2000/svg">
<rect width="36" height="36" rx="18" fill="#EE0027"/>
<path d="M23.9998 11.9998C23.8123 11.8123 23.558 11.707 23.2928 11.707C23.0277 11.707 22.7733 11.8123 22.5858 11.9998L17.9998 16.5858L13.4138 11.9998C13.2263 11.8123 12.972 11.707 12.7068 11.707C12.4417 11.707 12.1873 11.8123 11.9998 11.9998C11.8123 12.1873 11.707 12.4417 11.707 12.7068C11.707 12.972 11.8123 13.2263 11.9998 13.4138L16.5858 17.9998L11.9998 22.5858C11.8123 22.7733 11.707 23.0277 11.707 23.2928C11.707 23.558 11.8123 23.8123 11.9998 23.9998C12.1873 24.1873 12.4417 24.2926 12.7068 24.2926C12.972 24.2926 13.2263 24.1873 13.4138 23.9998L17.9998 19.4138L22.5858 23.9998C22.7733 24.1873 23.0277 24.2926 23.2928 24.2926C23.558 24.2926 23.8123 24.1873 23.9998 23.9998C24.1873 23.8123 24.2926 23.558 24.2926 23.2928C24.2926 23.0277 24.1873 22.7733 23.9998 22.5858L19.4138 17.9998L23.9998 13.4138C24.1873 13.2263 24.2926 12.972 24.2926 12.7068C24.2926 12.4417 24.1873 12.1873 23.9998 11.9998Z" fill="white"/>
</svg>
